<svg xmlns="http://www.w3.org/2000/svg" viewBox="0 0 500 500">
<g>
<path d="M 292.10,357.82 L 292.77,361.74 L 293.00,362.73 L 293.10,363.07 L 293.30,363.64 L 293.39,363.72 L 293.83,363.69 L 294.04,363.47 L 293.17,364.95 L 292.62,365.85 L 291.34,367.71 L 290.01,369.57 L 286.88,373.25 L 285.28,375.04 L 281.97,378.17 L 281.15,378.89 L 279.56,380.15 L 277.31,381.67 L 276.24,382.29 L 273.85,383.39 L 272.62,383.91 L 269.97,384.78 L 268.62,385.19 L 265.76,385.83 L 264.32,386.13 L 261.34,386.54 L 258.34,386.88 L 252.24,386.84 L 250.73,386.76 L 247.77,386.41 L 246.31,386.21 L 243.50,385.59 L 242.21,385.27 L 239.72,384.44 L 238.48,383.99 L 236.10,382.91 L 233.74,381.78 L 229.40,378.84 L 227.31,377.28 L 223.57,373.60 L 221.78,371.67 L 218.71,367.38 L 217.28,365.16 L 214.99,360.39 L 214.74,359.81 L 215.64,361.59 L 216.47,362.86 L 216.83,363.29 L 217.51,363.98 L 217.71,364.01 L 217.88,363.98 L 217.92,363.87 L 217.95,363.58 L 217.91,363.32 L 217.86,362.61 L 217.85,361.80 L 217.85,361.27 L 217.88,358.88 L 217.93,357.50 L 218.09,352.50 L 220.45,357.00 L 222.62,360.56 L 224.33,362.88 L 225.29,363.98 L 227.29,366.16 L 228.38,367.19 L 230.61,369.19 L 231.79,370.11 L 234.20,371.90 L 235.45,372.69 L 237.97,374.21 L 239.25,374.85 L 241.83,376.05 L 243.13,376.52 L 245.70,377.37 L 246.97,377.64 L 250.16,378.28 L 251.62,378.51 L 253.03,378.72 L 253.62,378.79 L 254.69,378.90 L 255.04,378.92 L 256.66,378.84 L 257.98,378.67 L 258.72,378.53 L 261.91,377.86 L 263.65,377.38 L 267.15,376.35 L 268.79,375.76 L 271.92,374.55 L 273.10,373.95 L 275.16,372.72 L 276.59,371.71 L 277.32,371.12 L 280.28,368.56 L 281.70,367.07 L 284.49,363.96 L 285.71,362.34 L 287.98,359.07 L 288.80,357.50 L 291.41,352.50 M 311.01,331.89 L 311.40,333.74 L 311.74,335.54 L 311.84,336.34 L 312.00,337.89 L 312.00,338.54 L 312.14,340.18 L 312.42,341.02 L 312.69,341.38 L 313.31,342.05 L 313.80,342.37 L 314.89,343.01 L 315.65,343.37 L 318.37,344.67 L 318.36,345.88 L 318.34,346.94 L 318.28,348.83 L 318.22,350.66 L 317.99,353.59 L 317.85,354.95 L 317.46,357.15 L 316.67,359.88 L 316.21,361.08 L 315.49,363.24 L 315.34,363.72 L 315.13,364.48 L 315.00,365.19 L 315.00,365.26 L 315.59,365.39 L 315.98,365.45 L 317.32,365.55 L 318.08,365.60 L 320.11,365.69 L 321.22,365.72 L 323.91,365.78 L 325.34,365.81 L 328.64,365.85 L 330.37,365.86 L 334.24,365.87 L 336.24,365.88 L 340.63,365.86 L 347.75,365.81 L 349.59,365.79 L 352.98,365.76 L 354.63,365.74 L 357.65,365.71 L 359.11,365.69 L 361.78,365.65 L 363.07,365.63 L 365.42,365.59 L 366.55,365.57 L 368.60,365.52 L 369.59,365.50 L 371.37,365.44 L 373.08,365.39 L 375.79,365.25 L 377.04,365.18 L 378.99,364.99 L 379.88,364.89 L 381.26,364.65 L 381.39,364.62 L 381.34,364.64 L 380.04,364.89 L 379.21,364.99 L 377.44,365.19 L 376.32,365.27 L 373.90,365.43 L 372.40,365.49 L 369.19,365.62 L 367.23,365.68 L 365.20,365.73 L 364.09,365.76 L 361.81,365.81 L 360.56,365.84 L 357.98,365.89 L 356.58,365.92 L 353.71,365.97 L 352.15,366.00 L 323.80,366.50 L 322.06,371.00 L 320.21,375.21 L 319.49,376.64 L 319.15,377.29 L 318.47,378.52 L 318.17,379.00 L 316.64,381.69 L 316.29,382.42 L 316.18,382.68 L 316.00,383.15 L 316.00,383.25 L 316.59,383.44 L 317.54,383.55 L 318.26,383.60 L 319.86,383.69 L 320.87,383.73 L 321.64,383.76 L 319.88,383.74 L 318.16,383.71 L 314.94,383.65 L 313.38,383.61 L 310.55,383.53 L 309.20,383.49 L 306.84,383.39 L 303.92,383.23 L 296.89,382.72 L 299.34,380.11 L 299.76,379.67 L 300.70,378.40 L 301.19,377.71 L 302.24,376.03 L 303.30,374.26 L 305.50,369.98 L 306.57,367.78 L 308.47,363.29 L 308.91,362.20 L 309.65,360.12 L 310.51,357.29 L 310.72,356.50 L 311.09,354.44 L 311.27,353.34 L 311.56,350.89 L 311.70,349.64 L 311.88,347.10 L 312.00,343.52 L 312.00,341.10 L 311.56,336.36 L 311.27,334.01 L 310.25,329.44 L 310.11,328.87 M 198.57,335.27 L 198.00,343.16 L 198.00,344.83 L 198.16,348.04 L 198.27,349.62 L 198.65,352.67 L 198.87,354.18 L 199.48,357.11 L 199.82,358.56 L 200.68,361.39 L 201.14,362.80 L 202.25,365.57 L 202.84,366.95 L 204.22,369.69 L 204.94,371.07 L 206.59,373.81 L 209.38,377.97 L 212.90,382.86 L 210.20,383.39 L 210.03,383.42 L 208.95,383.48 L 208.30,383.51 L 206.35,383.56 L 205.28,383.58 L 202.59,383.62 L 201.16,383.64 L 197.85,383.66 L 196.13,383.68 L 192.32,383.69 L 190.37,383.70 L 186.20,383.71 L 181.96,383.72 L 172.92,383.70 L 168.38,383.69 L 159.50,383.65 L 157.33,383.63 L 153.21,383.60 L 151.19,383.58 L 151.00,383.58 L 151.02,378.75 L 151.29,373.98 L 151.46,372.40 L 151.56,371.70 L 151.77,370.37 L 151.89,369.87 L 152.73,366.25 L 142.12,365.80 L 136.33,365.36 L 135.67,365.27 L 136.56,365.32 L 139.00,365.42 L 140.28,365.47 L 143.24,365.57 L 144.78,365.61 L 148.17,365.69 L 149.91,365.73 L 153.64,365.79 L 165.65,365.90 L 195.79,366.00 L 193.73,359.75 L 193.33,358.54 L 192.73,356.19 L 192.46,354.99 L 192.09,352.40 L 191.93,351.04 L 191.75,347.85 L 191.72,347.00 L 191.71,346.54 L 193.84,344.96 L 196.08,343.29 L 196.61,342.90 L 196.77,342.77 L 197.03,342.57 L 197.03,342.56 L 197.16,341.91 L 197.35,340.90 L 197.48,340.17 L 197.77,338.57 L 197.94,337.61 L 198.30,335.60 L 198.49,334.50 L 199.22,331.70 M 386.26,381.40 L 377.94,383.04 L 377.41,383.11 L 375.86,383.22 L 375.01,383.28 L 372.87,383.38 L 372.28,383.40 L 372.44,383.40 L 374.69,383.28 L 375.61,383.22 L 377.32,383.09 L 377.94,383.01 L 386.25,381.40 L 389.42,380.36 M 112.41,375.46 L 116.66,378.02 L 118.93,379.07 L 123.57,381.01 L 126.00,381.72 L 129.50,382.60 L 126.23,381.84 L 123.85,381.18 L 119.27,379.31 L 117.02,378.28 L 112.77,375.72 L 110.69,374.37 L 110.49,374.21 M 124.60,362.29 L 124.40,362.20 L 124.05,362.00 M 114.70,352.86 L 115.98,354.72 L 116.64,355.62 L 118.05,357.24 L 118.77,358.02 L 120.31,359.40 L 121.10,360.07 L 122.79,361.24 L 123.30,361.57 L 123.24,361.53 L 121.01,360.10 L 120.00,359.24 L 118.05,357.42 L 117.17,356.35 L 115.45,354.11 L 114.65,352.81 L 113.10,350.11 L 112.92,349.73 L 114.09,351.84 M 298.48,349.46 L 298.19,351.67 L 297.10,356.01 L 296.86,356.62 L 297.20,355.33 L 298.04,351.93 L 298.33,350.25 L 298.83,345.34 M 211.48,344.41 L 211.61,346.74 L 211.45,344.99 L 211.40,343.66 L 211.45,342.04 M 298.86,345.03 L 298.84,345.23 L 298.84,344.54 M 212.07,336.79 L 211.46,341.78 L 211.48,340.99 L 211.92,336.99 L 212.08,335.96 L 212.47,334.37 M 298.47,338.38 L 298.48,338.52 L 298.44,338.26 M 195.16,321.19 L 194.35,323.80 L 192.85,329.04 L 192.32,331.60 L 191.75,334.81 L 191.79,333.78 L 192.13,330.99 L 192.34,329.64 L 193.08,326.98 L 193.29,326.28 L 193.82,324.75 L 194.79,322.14 L 195.65,319.84 L 196.12,318.75 M 315.85,322.76 L 316.43,324.27 L 317.23,326.75 L 317.58,327.98 L 318.00,330.53 L 318.09,331.21 L 318.22,332.73 L 318.27,333.52 L 318.30,334.20 L 317.68,329.95 L 316.46,325.08 L 315.61,322.68 L 314.33,319.43 M 212.52,334.14 L 212.62,333.76 L 212.92,332.64 L 213.49,330.91 M 200.39,327.16 L 200.66,326.13 L 201.20,324.74 M 293.52,323.46 L 294.60,325.48 L 294.86,326.13 L 294.46,325.30 L 293.40,323.26 M 202.60,321.08 L 202.71,320.79 L 202.86,320.50 M 291.18,319.47 L 291.85,320.62 L 290.20,318.16 M 226.70,310.29 L 222.96,313.87 L 221.35,315.89 L 219.59,318.31 L 220.50,316.88 L 221.17,315.92 L 222.53,314.21 L 224.56,312.05 L 225.98,310.75 L 229.00,308.44 L 230.54,307.34 L 231.96,306.52 M 312.41,315.20 L 312.72,315.89 L 312.59,315.62 L 311.41,313.44 M 288.01,315.41 L 286.37,313.49 L 285.06,312.21 L 286.79,313.91 M 198.26,313.84 L 199.21,311.84 L 200.42,309.54 L 197.91,314.61 M 301.07,310.09 L 301.98,311.41 L 303.13,313.15 L 301.41,310.61 L 300.71,309.64 M 297.98,306.28 L 299.03,307.54 L 299.23,307.79 L 297.08,305.34 M 282.41,293.57 L 283.85,294.46 L 286.69,296.29 L 288.06,297.29 L 290.74,299.34 L 292.02,300.44 L 294.52,302.69 L 294.71,302.88 L 291.68,300.16 L 285.75,295.71 L 284.61,294.96 L 282.48,293.64 L 281.93,293.31 M 257.02,300.06 L 260.75,300.42 L 261.50,300.56 L 259.30,300.28 L 257.85,300.21 L 252.00,300.16 L 249.10,300.53 L 246.21,300.96 L 244.80,301.27 L 243.75,301.53 L 244.15,301.42 L 245.95,300.96 L 249.61,300.39 L 251.44,300.16 L 255.16,300.05 M 243.64,287.95 L 241.40,288.39 L 236.90,289.84 L 235.75,290.25 L 233.35,291.25 L 229.50,293.00 L 227.11,294.14 L 223.49,296.39 L 224.77,295.47 L 227.23,294.06 L 232.27,291.44 L 234.92,290.41 L 240.33,288.56 L 243.15,287.95 L 246.62,287.40 L 248.13,287.27 M 291.45,290.85 L 293.56,292.37 L 293.88,292.65 L 292.52,291.64 L 289.71,289.67 M 274.05,289.57 L 274.89,289.91 L 275.64,290.25 L 273.39,289.42 L 272.25,289.06 M 271.18,281.54 L 273.53,282.03 L 278.16,283.59 L 280.46,284.46 L 284.95,286.72 L 287.17,287.94 L 287.87,288.41 L 285.89,287.29 L 279.33,284.19 L 274.61,282.54 L 272.13,281.93 L 267.26,280.88 M 259.60,287.23 L 262.61,287.45 L 263.00,287.49 L 259.15,287.23 L 257.57,287.16 L 254.70,287.09 L 253.42,287.08 L 256.58,287.04 M 250.72,287.15 L 248.27,287.26 L 249.25,287.17 L 250.67,287.11 L 253.14,287.08 M 230.75,284.28 L 231.00,284.18 L 232.68,283.55 L 232.78,283.53 M 261.48,280.17 L 265.41,280.58 L 266.85,280.82 L 264.47,280.52 L 260.58,280.13 M 283.15,255.45 L 282.66,254.59 L 281.88,254.00 L 282.66,254.59 Z" fill="rgba(205,208,211,1)"/>
<path d="M 133.50,383.30 L 130.94,382.96 L 126.00,381.72 L 123.57,381.01 L 118.93,379.07 L 116.66,378.02 L 112.41,375.46 L 110.34,374.11 L 106.55,370.99 L 104.72,369.37 L 101.46,365.76 L 99.91,363.90 L 97.27,359.87 L 96.03,357.81 L 94.08,353.43 L 92.01,346.53 L 91.96,346.32 L 91.88,345.56 L 91.84,345.12 L 91.76,343.92 L 91.72,343.27 L 91.65,341.62 L 91.62,340.74 L 91.56,338.65 L 91.53,337.55 L 91.47,335.00 L 91.45,333.68 L 91.40,330.69 L 91.37,329.14 L 91.33,325.70 L 91.31,323.92 L 91.28,320.03 L 91.26,318.02 L 91.24,313.68 L 91.22,311.45 L 91.20,306.64 L 91.19,304.19 L 91.18,298.92 L 91.17,296.24 L 91.17,290.52 L 91.17,287.60 L 91.17,281.42 L 91.17,278.27 L 91.18,271.63 L 91.18,268.25 L 91.19,261.15 L 91.22,249.97 L 91.50,158.50 L 94.23,152.67 L 95.20,150.60 L 97.26,147.02 L 98.33,145.31 L 100.68,142.32 L 101.91,140.89 L 104.68,138.34 L 109.46,134.86 L 115.50,131.04 L 116.75,139.77 L 117.06,141.98 L 118.10,146.31 L 118.68,148.45 L 120.22,152.59 L 121.05,154.64 L 123.07,158.55 L 124.14,160.48 L 126.59,164.12 L 127.87,165.90 L 130.74,169.23 L 132.22,170.84 L 135.45,173.80 L 137.11,175.22 L 140.69,177.76 L 146.39,181.05 L 147.65,181.67 L 149.92,182.73 L 151.02,183.23 L 153.00,184.03 L 153.96,184.41 L 155.67,184.98 L 156.49,185.23 L 157.95,185.56 L 158.65,185.70 L 159.89,185.80 L 160.48,185.82 L 161.52,185.69 L 162.02,185.60 L 162.89,185.25 L 164.02,184.48 L 164.49,184.06 L 165.11,182.96 L 165.25,182.62 L 165.46,181.68 L 165.56,181.16 L 165.71,179.75 L 165.77,178.97 L 165.86,176.95 L 165.90,175.84 L 165.95,173.05 L 165.97,171.55 L 165.99,167.84 L 166.00,166.85 L 166.00,164.67 L 166.00,161.10 L 166.00,158.64 L 166.02,154.52 L 166.02,152.57 L 166.06,149.35 L 166.08,147.84 L 166.16,145.40 L 166.20,144.25 L 166.32,142.43 L 166.38,141.59 L 166.56,140.25 L 166.66,139.63 L 166.90,138.65 L 167.95,136.31 L 168.48,135.44 L 170.00,133.68 L 170.38,133.27 L 171.15,132.58 L 172.20,131.81 L 172.31,131.75 L 172.72,131.63 L 172.96,131.57 L 173.64,131.45 L 174.02,131.40 L 175.00,131.29 L 175.53,131.24 L 176.84,131.15 L 177.54,131.10 L 179.20,131.01 L 180.09,130.97 L 182.15,130.89 L 183.23,130.85 L 185.71,130.77 L 187.00,130.73 L 189.93,130.66 L 191.46,130.63 L 194.86,130.57 L 196.63,130.53 L 200.55,130.47 L 202.58,130.44 L 207.03,130.39 L 209.33,130.36 L 214.36,130.30 L 216.95,130.28 L 222.58,130.23 L 225.47,130.20 L 231.72,130.15 L 234.93,130.12 L 241.85,130.07 L 253.00,130.00 L 331.50,129.50 L 331.82,127.23 L 331.91,126.61 L 332.20,125.59 L 332.38,125.12 L 332.98,124.34 L 333.34,123.98 L 334.43,123.42 L 335.05,123.16 L 336.79,122.79 L 337.76,122.62 L 340.33,122.39 L 341.04,122.35 L 342.63,122.28 L 343.45,122.24 L 345.31,122.20 L 346.27,122.18 L 348.42,122.17 L 349.53,122.16 L 351.98,122.16 L 353.25,122.17 L 356.03,122.19 L 360.60,122.23 L 384.50,122.50 L 386.33,126.25 L 386.88,127.37 L 388.15,128.97 L 388.47,129.30 L 389.09,129.73 L 389.95,130.00 L 390.19,130.00 L 391.20,130.28 L 391.77,130.46 L 393.29,131.04 L 394.09,131.36 L 395.92,132.17 L 398.82,133.54 L 400.86,134.57 L 404.46,137.00 L 406.20,138.30 L 409.30,141.41 L 410.80,143.06 L 413.54,146.99 L 414.20,148.04 L 415.50,150.30 L 417.39,154.00 L 420.50,160.50 L 420.78,250.99 L 420.78,253.78 L 420.80,259.12 L 420.81,261.75 L 420.82,266.76 L 420.83,269.22 L 420.84,273.91 L 420.85,276.22 L 420.86,280.60 L 420.87,282.75 L 420.88,286.83 L 420.88,288.84 L 420.89,292.63 L 420.89,294.50 L 420.89,298.02 L 420.90,299.75 L 420.90,303.01 L 420.90,306.21 L 420.89,311.87 L 420.89,314.59 L 420.87,319.35 L 420.85,321.63 L 420.82,325.58 L 420.80,327.47 L 420.74,330.71 L 420.72,332.25 L 420.64,334.86 L 420.60,336.10 L 420.51,338.19 L 420.46,339.18 L 420.35,340.83 L 420.29,341.61 L 420.15,342.91 L 420.00,344.15 L 419.63,345.98 L 418.94,348.49 L 418.27,350.75 L 416.84,354.55 L 416.09,356.38 L 414.34,359.62 L 413.40,361.21 L 411.07,364.32 L 406.67,369.28 L 404.80,371.22 L 400.66,374.51 L 398.52,376.06 L 393.84,378.56 L 391.43,379.71 L 386.25,381.40 L 377.94,383.01 L 377.32,383.09 L 375.61,383.22 L 374.69,383.28 L 372.44,383.40 L 371.25,383.45 L 368.55,383.55 L 367.15,383.60 L 364.09,383.69 L 360.95,383.77 L 353.99,383.88 L 350.46,383.93 L 343.26,383.97 L 339.70,383.98 L 332.99,383.96 L 331.38,383.95 L 328.37,383.91 L 326.92,383.89 L 324.29,383.84 L 323.03,383.81 L 320.87,383.73 L 319.86,383.69 L 318.26,383.60 L 317.54,383.55 L 316.59,383.44 L 316.00,383.25 L 316.00,383.15 L 316.18,382.68 L 316.29,382.42 L 316.64,381.69 L 318.17,379.00 L 318.47,378.52 L 319.15,377.29 L 319.49,376.64 L 320.21,375.21 L 322.06,371.00 L 323.80,366.50 L 352.15,366.00 L 353.71,365.97 L 356.58,365.92 L 357.98,365.89 L 360.56,365.84 L 361.81,365.81 L 364.09,365.76 L 365.20,365.73 L 367.23,365.68 L 369.19,365.62 L 372.40,365.49 L 373.90,365.43 L 376.32,365.27 L 377.44,365.19 L 379.21,364.99 L 380.04,364.89 L 381.34,364.64 L 384.23,363.65 L 385.75,362.89 L 388.74,360.86 L 390.22,359.77 L 392.96,357.23 L 394.28,355.91 L 396.58,353.06 L 399.30,348.64 L 402.02,343.08 L 402.12,311.79 L 402.12,309.64 L 402.13,304.62 L 402.14,302.01 L 402.14,296.24 L 402.15,293.27 L 402.15,286.94 L 402.15,283.72 L 402.15,277.03 L 402.15,270.28 L 402.14,256.59 L 402.13,253.22 L 402.12,246.68 L 402.10,237.38 L 402.00,194.27 L 394.52,185.88 L 393.49,184.73 L 391.51,182.63 L 390.55,181.63 L 388.86,179.96 L 388.07,179.20 L 386.86,178.16 L 386.59,177.95 L 386.19,177.67 L 385.78,177.50 L 385.71,177.50 L 385.44,177.69 L 385.29,177.82 L 384.87,178.25 L 384.42,178.73 L 383.10,180.37 L 382.38,181.28 L 380.58,183.69 L 379.64,184.98 L 377.45,188.04 L 376.32,189.65 L 373.83,193.25 L 372.55,195.11 L 369.83,199.14 L 368.45,201.20 L 365.59,205.54 L 361.22,212.27 L 360.49,213.40 L 359.03,215.65 L 358.31,216.75 L 356.97,218.75 L 356.34,219.71 L 355.28,221.25 L 354.19,222.78 L 352.44,225.06 L 343.97,216.53 L 342.81,215.36 L 340.63,213.22 L 339.59,212.20 L 337.80,210.51 L 336.97,209.73 L 335.77,208.67 L 335.51,208.46 L 335.15,208.17 L 334.84,208.00 L 334.80,208.00 L 334.58,208.18 L 334.46,208.30 L 334.10,208.69 L 333.70,209.13 L 332.56,210.57 L 331.94,211.36 L 330.45,213.35 L 328.00,216.75 L 326.70,218.59 L 324.29,222.01 L 323.11,223.68 L 320.95,226.75 L 319.89,228.25 L 317.96,231.00 L 317.03,232.33 L 315.32,234.77 L 314.49,235.95 L 313.00,238.10 L 312.28,239.14 L 310.98,241.02 L 310.36,241.92 L 309.25,243.54 L 308.72,244.32 L 307.78,245.70 L 306.89,247.03 L 305.59,249.04 L 305.01,249.96 L 304.25,251.25 L 303.93,251.82 L 303.63,252.54 L 303.57,253.12 L 303.61,253.18 L 304.42,253.29 L 304.94,253.35 L 306.65,253.46 L 307.61,253.51 L 310.10,253.61 L 311.44,253.66 L 314.63,253.74 L 316.30,253.78 L 320.08,253.85 L 322.03,253.88 L 326.30,253.93 L 328.49,253.95 L 333.14,253.98 L 340.45,254.00 L 342.49,254.00 L 346.24,254.00 L 348.06,254.00 L 351.39,254.01 L 353.00,254.01 L 355.93,254.02 L 357.35,254.03 L 359.91,254.05 L 361.15,254.06 L 363.37,254.08 L 364.44,254.10 L 366.34,254.13 L 367.25,254.15 L 368.86,254.19 L 369.62,254.21 L 370.96,254.27 L 372.23,254.32 L 374.07,254.47 L 374.90,254.55 L 375.99,254.76 L 376.46,254.87 L 377.00,255.14 L 377.41,255.63 L 377.61,256.15 L 377.80,257.01 L 377.84,257.42 L 377.49,258.07 L 377.23,258.37 L 376.07,258.85 L 375.71,258.96 L 374.81,259.15 L 374.32,259.24 L 373.11,259.39 L 372.47,259.47 L 370.93,259.60 L 370.12,259.66 L 368.21,259.76 L 367.21,259.81 L 364.90,259.89 L 363.69,259.93 L 360.94,259.99 L 359.51,260.02 L 356.29,260.07 L 354.62,260.09 L 350.90,260.13 L 348.97,260.15 L 344.70,260.19 L 337.65,260.24 L 335.39,260.25 L 331.25,260.28 L 329.25,260.30 L 325.61,260.33 L 323.85,260.34 L 320.67,260.37 L 319.14,260.39 L 316.40,260.43 L 315.08,260.44 L 312.74,260.48 L 311.62,260.51 L 309.64,260.55 L 308.70,260.58 L 307.06,260.63 L 306.28,260.66 L 304.95,260.73 L 303.69,260.80 L 301.94,260.98 L 301.18,261.07 L 300.23,261.32 L 299.83,261.45 L 299.43,261.77 L 299.17,262.36 L 299.08,262.83 L 299.06,263.63 L 299.09,264.00 L 299.45,264.62 L 299.70,264.90 L 300.61,265.36 L 301.15,265.58 L 302.78,265.91 L 303.70,266.07 L 306.22,266.31 L 306.92,266.36 L 308.51,266.46 L 309.33,266.51 L 311.20,266.59 L 312.17,266.63 L 314.35,266.71 L 315.47,266.74 L 317.97,266.81 L 319.26,266.84 L 322.11,266.90 L 326.79,267.00 L 328.31,267.03 L 331.09,267.09 L 332.44,267.11 L 334.89,267.17 L 336.08,267.19 L 338.22,267.24 L 339.25,267.27 L 341.10,267.32 L 342.88,267.38 L 345.66,267.49 L 346.93,267.56 L 348.83,267.71 L 349.69,267.79 L 350.88,267.98 L 351.40,268.09 L 352.06,268.35 L 352.33,268.48 L 352.63,268.82 L 352.85,269.43 L 352.94,269.93 L 352.93,270.76 L 352.89,271.16 L 352.52,271.81 L 352.29,272.12 L 351.47,272.61 L 351.00,272.84 L 349.64,273.19 L 348.87,273.36 L 346.86,273.59 L 345.76,273.70 L 343.00,273.84 L 341.51,273.90 L 337.90,273.97 L 331.43,274.00 L 330.20,274.00 L 327.94,274.01 L 326.84,274.01 L 324.84,274.03 L 322.90,274.05 L 319.74,274.15 L 318.28,274.21 L 315.99,274.40 L 314.94,274.51 L 313.42,274.82 L 312.75,274.99 L 311.89,275.44 L 311.54,275.69 L 311.24,276.31 L 311.15,276.64 L 311.32,277.46 L 311.97,278.94 L 312.23,279.43 L 313.06,280.10 L 313.35,280.24 L 314.22,280.47 L 314.72,280.57 L 316.13,280.72 L 316.93,280.78 L 319.05,280.87 L 320.23,280.91 L 323.24,280.96 L 324.06,280.97 L 325.89,280.98 L 326.84,280.99 L 328.96,280.99 L 330.05,281.00 L 332.47,281.00 L 336.45,281.00 L 339.67,281.00 L 345.66,281.05 L 347.10,281.06 L 349.77,281.10 L 351.08,281.13 L 353.43,281.18 L 354.56,281.21 L 356.53,281.27 L 357.45,281.30 L 358.96,281.37 L 359.65,281.41 L 360.62,281.49 L 361.42,281.61 L 361.83,281.76 L 362.43,282.50 L 362.69,282.91 L 362.95,283.90 L 363.03,284.41 L 362.90,285.35 L 362.20,286.37 L 362.15,286.41 L 361.51,286.48 L 361.11,286.51 L 359.83,286.58 L 359.12,286.62 L 357.28,286.69 L 356.29,286.72 L 353.96,286.79 L 352.74,286.82 L 349.99,286.88 L 348.57,286.92 L 345.47,286.97 L 335.26,287.10 L 333.47,287.12 L 330.22,287.14 L 328.65,287.16 L 325.82,287.18 L 324.45,287.18 L 322.00,287.19 L 320.82,287.18 L 318.73,287.17 L 317.72,287.15 L 315.95,287.11 L 315.10,287.08 L 313.61,287.00 L 312.19,286.91 L 310.09,286.60 L 309.14,286.42 L 307.80,285.91 L 307.19,285.62 L 306.35,284.84 L 305.97,284.42 L 305.37,283.34 L 304.49,281.33 L 304.07,280.32 L 302.99,278.91 L 302.71,278.62 L 302.14,278.23 L 301.30,277.99 L 301.05,277.99 L 300.29,277.80 L 299.87,277.67 L 298.85,277.27 L 295.50,275.53 L 294.10,274.67 L 291.28,273.64 L 286.59,273.03 L 285.54,273.02 L 283.85,272.86 L 283.05,272.75 L 281.56,272.25 L 280.81,271.95 L 279.17,270.97 L 276.12,268.80 L 275.28,268.16 L 273.66,267.08 L 272.87,266.58 L 271.43,265.80 L 270.75,265.45 L 269.57,265.01 L 268.21,264.79 L 267.65,264.84 L 266.91,264.78 L 266.59,264.70 L 266.26,264.17 L 266.13,263.81 L 266.10,262.50 L 266.11,262.11 L 266.16,261.14 L 266.29,259.34 L 266.40,257.78 L 266.29,254.17 L 266.23,253.30 L 266.05,251.69 L 265.69,249.69 L 265.47,248.83 L 265.23,247.56 L 265.14,246.99 L 265.19,246.15 L 265.25,245.77 L 265.63,245.17 L 266.59,244.29 L 267.02,243.97 L 267.57,243.50 L 267.79,243.28 L 267.93,242.91 L 267.95,242.73 L 267.71,242.37 L 266.92,241.69 L 266.47,241.35 L 265.69,240.23 L 265.32,239.63 L 264.82,238.33 L 264.62,237.71 L 264.55,236.70 L 264.57,236.48 L 264.71,236.19 L 265.09,236.00 L 265.34,236.00 L 265.73,236.45 L 266.00,237.53 L 266.00,237.95 L 266.43,238.78 L 267.46,239.62 L 267.62,239.69 L 268.29,240.42 L 268.67,240.87 L 269.67,242.23 L 270.19,242.96 L 271.38,244.72 L 271.98,245.63 L 273.23,247.58 L 273.84,248.56 L 275.01,250.49 L 275.58,251.44 L 276.54,253.14 L 276.98,253.94 L 277.60,255.20 L 278.00,256.36 L 278.00,256.54 L 277.29,256.66 L 275.59,256.43 L 275.00,256.29 L 274.24,256.17 L 273.92,256.15 L 273.62,256.43 L 273.52,256.64 L 273.61,257.51 L 274.06,259.66 L 274.31,260.72 L 274.70,262.59 L 274.78,263.01 L 274.90,263.66 L 274.98,264.25 L 274.98,264.42 L 275.34,264.66 L 275.57,264.77 L 276.29,264.91 L 277.10,265.02 L 279.38,264.96 L 280.56,264.88 L 283.00,264.47 L 285.96,263.52 L 286.68,263.15 L 288.28,261.92 L 289.07,261.26 L 290.56,259.74 L 291.26,258.98 L 292.31,257.53 L 292.52,257.19 L 292.82,256.58 L 293.00,255.84 L 293.00,255.72 L 292.77,255.61 L 292.62,255.58 L 292.13,255.66 L 290.05,256.47 L 289.05,256.99 L 287.39,257.61 L 286.62,257.85 L 285.40,257.91 L 284.85,257.87 L 284.05,257.37 L 283.29,256.00 L 283.15,255.45 L 282.66,254.59 L 281.88,254.00 L 281.75,254.00 L 281.16,253.43 L 280.82,253.06 L 279.88,251.87 L 279.37,251.21 L 278.20,249.57 L 276.32,246.75 L 275.40,245.32 L 273.98,242.86 L 273.32,241.68 L 272.34,239.45 L 271.88,238.34 L 271.19,236.00 L 270.34,232.01 L 270.15,230.98 L 269.87,228.96 L 269.74,227.97 L 269.57,226.19 L 269.51,225.34 L 269.47,224.00 L 269.59,222.71 L 269.75,222.21 L 269.72,221.08 L 269.22,219.70 L 269.09,219.54 L 268.71,218.77 L 268.51,218.33 L 268.02,217.14 L 266.47,212.66 L 266.16,211.66 L 265.54,210.00 L 265.23,209.24 L 264.59,208.04 L 264.27,207.49 L 263.60,206.72 L 262.54,206.02 L 261.59,205.65 L 260.25,204.84 L 259.67,204.40 L 259.02,203.29 L 258.77,202.67 L 258.72,201.04 L 259.24,197.79 L 259.45,196.88 L 259.70,195.45 L 259.80,194.78 L 259.82,193.75 L 259.81,193.27 L 259.60,192.51 L 259.04,191.54 L 258.61,191.03 L 257.28,190.41 L 256.56,190.16 L 254.91,190.06 L 254.07,190.07 L 252.46,190.48 L 250.48,191.66 L 250.07,192.07 L 249.56,192.92 L 249.36,193.38 L 249.27,194.60 L 249.28,195.29 L 249.60,197.25 L 249.71,197.80 L 250.01,199.11 L 250.57,201.42 L 250.72,202.01 L 250.81,202.88 L 250.81,203.28 L 250.49,203.89 L 250.27,204.17 L 249.40,204.70 L 247.34,205.60 L 246.42,205.96 L 245.14,206.62 L 244.55,206.98 L 243.70,207.98 L 243.29,208.56 L 242.56,210.32 L 242.37,210.83 L 241.97,212.07 L 241.27,214.32 L 240.97,215.34 L 240.43,217.65 L 240.17,218.84 L 239.74,221.38 L 239.34,223.95 L 238.90,229.10 L 238.82,230.34 L 238.77,232.63 L 238.76,233.73 L 238.86,235.63 L 238.93,236.52 L 239.18,237.88 L 239.74,239.14 L 240.06,239.46 L 240.39,240.79 L 240.32,243.15 L 240.22,243.67 L 240.13,244.47 L 240.11,244.84 L 240.21,245.35 L 240.27,245.58 L 240.55,245.85 L 241.19,246.00 L 241.48,246.00 L 241.90,246.39 L 242.09,246.67 L 242.32,247.80 L 242.37,248.14 L 242.44,248.99 L 242.47,249.45 L 242.50,250.58 L 242.52,251.17 L 242.52,252.59 L 242.50,255.08 L 242.48,256.33 L 242.36,258.66 L 242.30,259.78 L 242.10,261.69 L 242.00,262.57 L 241.75,263.85 L 241.35,264.83 L 241.21,264.92 L 240.60,265.39 L 240.25,265.66 L 239.31,266.40 L 235.82,269.25 L 234.84,270.06 L 233.29,271.20 L 232.55,271.71 L 231.20,272.34 L 230.52,272.61 L 229.03,272.87 L 226.24,273.00 L 224.47,273.00 L 220.88,273.71 L 219.95,273.96 L 218.00,274.64 L 214.84,276.00 L 213.97,276.41 L 212.26,277.16 L 211.42,277.52 L 209.91,278.12 L 209.19,278.39 L 208.05,278.76 L 206.95,279.00 L 206.74,279.00 L 206.25,279.27 L 206.00,279.45 L 205.48,280.02 L 204.14,282.50 L 203.75,283.58 L 202.63,285.20 L 202.33,285.55 L 201.69,286.06 L 200.69,286.53 L 200.54,286.57 L 199.74,286.63 L 199.26,286.66 L 197.86,286.71 L 197.10,286.74 L 195.18,286.78 L 194.16,286.80 L 191.80,286.82 L 190.57,286.83 L 187.83,286.85 L 186.42,286.85 L 183.38,286.85 L 173.50,286.78 L 148.50,286.50 L 148.18,284.25 L 148.09,283.63 L 148.05,282.60 L 148.18,281.79 L 148.20,281.78 L 148.74,281.74 L 149.09,281.72 L 150.24,281.67 L 150.88,281.65 L 152.56,281.59 L 153.46,281.56 L 155.60,281.49 L 156.73,281.46 L 159.27,281.38 L 160.59,281.35 L 163.46,281.27 L 173.00,281.04 L 197.50,280.50 L 197.50,277.50 L 197.50,274.50 L 178.30,274.00 L 175.83,273.94 L 171.69,273.80 L 169.75,273.73 L 166.57,273.57 L 165.09,273.49 L 162.75,273.27 L 161.68,273.16 L 160.07,272.86 L 159.34,272.70 L 158.34,272.30 L 157.90,272.09 L 157.40,271.56 L 157.19,271.27 L 157.06,270.59 L 157.17,269.36 L 157.21,269.14 L 157.40,268.78 L 157.53,268.60 L 158.02,268.32 L 158.31,268.19 L 159.27,267.97 L 159.82,267.87 L 161.41,267.70 L 162.29,267.62 L 164.69,267.49 L 166.00,267.43 L 169.36,267.32 L 170.27,267.29 L 172.30,267.24 L 173.35,267.22 L 175.68,267.16 L 176.89,267.14 L 179.54,267.08 L 183.90,267.00 L 185.33,266.97 L 187.97,266.92 L 189.25,266.89 L 191.60,266.84 L 193.89,266.79 L 197.70,266.68 L 199.48,266.63 L 202.38,266.51 L 203.72,266.45 L 205.84,266.30 L 206.81,266.23 L 208.27,266.05 L 208.93,265.96 L 209.86,265.74 L 210.27,265.63 L 210.81,265.36 L 211.30,264.89 L 211.58,264.44 L 211.84,263.27 L 211.69,261.64 L 211.62,261.45 L 211.28,261.14 L 211.06,261.00 L 210.27,260.76 L 209.80,260.65 L 208.36,260.47 L 207.54,260.39 L 205.24,260.27 L 204.60,260.24 L 203.13,260.19 L 202.36,260.17 L 200.61,260.13 L 199.69,260.11 L 197.63,260.08 L 196.55,260.07 L 194.15,260.05 L 192.91,260.04 L 190.15,260.02 L 188.72,260.02 L 185.57,260.01 L 183.95,260.01 L 180.39,260.00 L 174.57,260.00 L 172.46,260.00 L 168.59,260.00 L 166.72,260.00 L 163.30,259.99 L 161.65,259.99 L 158.65,259.98 L 157.21,259.97 L 154.60,259.95 L 153.35,259.94 L 151.11,259.92 L 150.03,259.91 L 148.12,259.87 L 147.21,259.85 L 145.61,259.81 L 144.85,259.79 L 143.52,259.73 L 142.27,259.67 L 140.47,259.51 L 139.67,259.43 L 138.62,259.21 L 138.16,259.09 L 137.63,258.79 L 137.17,258.25 L 136.90,257.73 L 136.55,256.86 L 136.43,256.46 L 136.58,255.82 L 136.75,255.52 L 137.66,255.06 L 137.95,254.96 L 138.71,254.78 L 139.13,254.70 L 140.17,254.55 L 140.73,254.49 L 142.09,254.38 L 142.82,254.32 L 144.53,254.24 L 145.43,254.20 L 147.52,254.14 L 148.61,254.11 L 151.11,254.08 L 152.42,254.06 L 155.37,254.03 L 156.90,254.02 L 160.33,254.01 L 162.11,254.01 L 166.06,254.00 L 172.58,254.00 L 175.60,254.00 L 181.05,253.98 L 183.67,253.97 L 188.31,253.94 L 190.54,253.92 L 194.41,253.86 L 196.25,253.82 L 199.36,253.74 L 200.81,253.70 L 203.17,253.60 L 204.25,253.54 L 205.87,253.41 L 206.58,253.35 L 207.47,253.20 L 208.00,252.95 L 208.00,252.80 L 207.66,252.06 L 207.45,251.62 L 206.75,250.42 L 206.37,249.77 L 205.40,248.26 L 203.75,245.82 L 202.58,244.15 L 200.34,240.91 L 199.82,240.16 L 198.98,238.93 L 198.10,237.62 L 195.91,234.32 L 191.74,228.26 L 190.67,226.73 L 188.42,223.59 L 184.73,218.54 L 183.93,217.44 L 182.38,215.33 L 181.64,214.30 L 180.33,212.46 L 179.72,211.60 L 178.79,210.26 L 177.98,209.04 L 177.81,208.73 L 177.16,208.66 L 176.96,208.70 L 176.46,208.93 L 176.19,209.08 L 175.50,209.56 L 175.14,209.84 L 174.25,210.58 L 173.77,210.99 L 172.64,212.03 L 172.04,212.59 L 170.63,213.94 L 168.19,216.34 L 159.27,225.19 L 153.78,217.34 L 153.40,216.81 L 152.46,215.44 L 151.96,214.71 L 150.80,213.02 L 150.20,212.13 L 148.88,210.18 L 148.21,209.18 L 146.77,207.03 L 137.63,193.25 L 136.17,191.02 L 133.39,186.94 L 132.71,185.97 L 131.45,184.18 L 130.83,183.32 L 129.70,181.77 L 129.15,181.04 L 128.18,179.79 L 127.73,179.20 L 126.96,178.28 L 126.60,177.87 L 126.07,177.33 L 125.57,177.00 L 125.47,177.00 L 125.13,177.18 L 124.94,177.31 L 124.42,177.71 L 123.87,178.17 L 122.35,179.65 L 121.53,180.47 L 119.63,182.53 L 116.58,186.03 L 115.66,187.14 L 114.13,188.97 L 113.42,189.83 L 112.28,191.27 L 111.75,191.94 L 110.93,193.09 L 110.56,193.63 L 110.02,194.58 L 109.53,195.51 L 109.14,197.24 L 109.00,200.49 L 109.00,202.23 L 109.28,204.99 L 109.48,206.27 L 110.23,208.30 L 110.68,209.25 L 112.04,210.78 L 114.86,212.80 L 115.87,213.37 L 118.17,215.03 L 118.73,215.46 L 119.75,216.32 L 121.01,217.51 L 123.50,220.16 L 123.50,244.88 L 123.50,246.62 L 123.50,249.78 L 123.49,251.32 L 123.48,254.09 L 123.47,255.44 L 123.44,257.86 L 123.42,259.02 L 123.37,261.11 L 123.34,262.12 L 123.25,263.90 L 123.20,264.76 L 123.08,266.28 L 122.94,267.74 L 122.52,269.96 L 122.29,270.98 L 121.63,272.52 L 121.26,273.22 L 120.31,274.30 L 119.79,274.80 L 118.48,275.66 L 116.05,276.97 L 115.16,277.43 L 113.69,278.22 L 113.01,278.62 L 111.93,279.50 L 111.43,279.99 L 110.67,281.26 L 110.33,281.98 L 109.84,283.94 L 109.73,284.48 L 109.55,285.75 L 109.47,286.42 L 109.34,287.96 L 109.28,288.77 L 109.19,290.62 L 109.15,291.58 L 109.09,293.77 L 109.07,294.91 L 109.04,297.48 L 109.02,298.82 L 109.01,301.81 L 109.00,303.36 L 109.00,306.79 L 109.00,312.50 L 109.00,341.56 L 112.36,348.57 L 113.10,350.11 L 114.65,352.81 L 115.45,354.11 L 117.17,356.35 L 118.05,357.42 L 120.00,359.24 L 121.01,360.10 L 123.24,361.53 L 124.40,362.20 L 126.98,363.28 L 128.32,363.78 L 131.31,364.54 L 132.86,364.88 L 136.33,365.36 L 142.12,365.80 L 152.73,366.25 L 151.89,369.87 L 151.77,370.37 L 151.56,371.70 L 151.46,372.40 L 151.29,373.98 L 151.02,378.75 L 151.00,384.00 L 143.75,383.85 L 141.76,383.81 L 137.75,383.63 L 136.82,383.58 L 135.24,383.47 L 134.51,383.41 M 110.52,255.42 L 111.45,254.98 L 113.10,253.58 L 113.88,252.81 L 115.15,250.89 L 115.73,249.89 L 116.51,247.65 L 117.00,244.17 L 117.00,243.63 L 116.75,242.48 L 116.59,241.91 L 116.05,240.74 L 115.45,239.58 L 113.64,237.45 L 112.66,236.45 L 110.43,234.98 L 109.86,234.67 L 108.73,234.26 L 107.08,234.00 L 106.26,234.00 L 104.73,234.18 L 103.99,234.31 L 102.62,234.71 L 101.29,235.17 L 99.12,236.64 L 98.13,237.44 L 96.67,239.45 L 96.03,240.50 L 95.32,242.83 L 95.06,244.01 L 95.15,246.45 L 95.30,247.67 L 96.23,250.00 L 96.81,251.14 L 98.63,253.15 L 99.14,253.62 L 100.34,254.47 L 102.42,255.58 L 103.40,256.01 L 104.80,256.55 L 105.43,256.76 L 106.47,256.85 L 106.99,256.84 L 108.14,256.48 L 108.78,256.24 M 362.50,187.47 L 365.50,185.01 L 362.95,185.00 L 362.25,185.00 L 360.80,185.35 L 359.20,186.20 L 358.73,186.67 L 358.00,186.90 L 356.80,186.20 L 356.44,185.84 L 355.28,185.36 L 354.67,185.16 L 353.36,185.03 L 352.72,185.01 L 351.70,185.24 L 351.00,186.00 L 351.00,186.28 L 351.40,186.71 L 352.38,187.00 L 352.76,187.00 L 353.72,187.44 L 355.00,188.50 L 355.44,189.03 L 356.43,189.63 L 356.94,189.86 L 358.11,189.85 L 358.72,189.76 L 360.11,189.13 L 360.84,188.73 M 331.00,184.88 L 331.00,184.60 L 330.56,184.24 L 330.30,184.10 L 329.55,184.02 L 329.17,184.02 L 328.41,184.23 L 327.58,184.87 L 327.44,185.10 L 326.39,185.35 L 324.27,185.30 L 321.50,184.87 L 323.83,186.91 L 324.37,187.38 L 325.17,187.99 L 325.54,188.23 L 326.17,188.40 L 326.49,188.43 L 327.19,188.18 L 328.58,187.36 L 329.24,186.92 L 330.29,185.98 L 330.73,185.53 M 333.52,176.97 L 333.61,176.82 L 334.02,176.61 L 334.26,176.51 L 334.92,176.41 L 337.45,176.56 L 338.17,176.69 L 339.25,176.78 L 339.75,176.78 L 340.55,176.53 L 340.94,176.36 L 341.68,175.69 L 342.94,174.09 L 343.52,173.27 L 344.20,172.15 L 344.46,171.67 L 344.48,171.21 L 344.41,171.05 L 343.74,171.19 L 341.93,172.04 L 341.26,172.40 L 339.96,172.56 L 337.91,171.95 L 337.14,171.54 L 335.68,171.33 L 333.13,171.95 L 332.59,172.17 L 331.66,172.42 L 331.20,172.52 L 330.32,172.51 L 329.87,172.47 L 328.89,172.18 L 327.15,171.43 L 326.55,171.13 L 325.55,170.71 L 325.09,170.53 L 324.37,170.34 L 324.05,170.28 L 323.63,170.32 L 323.45,170.36 L 323.32,170.61 L 323.29,170.76 L 323.45,171.20 L 323.57,171.44 L 324.02,172.06 L 324.29,172.39 L 325.05,173.17 L 326.52,174.52 L 327.56,175.41 L 329.22,176.65 L 329.99,177.18 L 331.18,177.73 L 331.73,177.92 L 332.56,177.82 L 332.94,177.69 M 217.35,175.53 L 217.43,175.33 L 217.84,174.85 L 218.08,174.60 L 218.75,174.07 L 221.33,172.63 L 222.28,172.24 L 223.95,171.30 L 224.32,171.07 L 224.90,170.64 L 225.44,170.10 L 225.57,169.89 L 225.41,169.55 L 225.27,169.40 L 224.66,169.19 L 224.30,169.10 L 223.36,169.01 L 222.85,168.98 L 221.70,169.00 L 220.52,169.05 L 218.07,169.47 L 217.49,169.60 L 216.46,169.94 L 215.24,170.54 L 214.73,170.90 L 213.96,171.33 L 213.60,171.49 L 212.93,171.52 L 212.59,171.48 L 211.79,171.08 L 210.17,169.97 L 209.61,169.55 L 208.60,168.96 L 208.11,168.71 L 207.14,168.42 L 206.65,168.32 L 205.56,168.30 L 203.63,168.54 L 202.88,168.68 L 201.84,168.94 L 201.39,169.08 L 200.89,169.37 L 200.70,169.52 L 200.68,169.90 L 201.10,170.62 L 201.41,171.00 L 202.41,171.59 L 203.95,172.00 L 204.18,172.00 L 204.79,172.20 L 205.12,172.32 L 205.84,172.73 L 208.00,174.50 L 208.67,175.21 L 210.46,176.21 L 211.38,176.63 L 213.32,177.00 L 214.27,177.10 L 215.87,176.80 L 216.22,176.68 L 216.79,176.31 L 217.04,176.10 M 246.97,377.64 L 245.70,377.37 L 243.13,376.52 L 241.83,376.05 L 239.25,374.85 L 237.97,374.21 L 235.45,372.69 L 234.20,371.90 L 231.79,370.11 L 230.61,369.19 L 228.38,367.19 L 227.29,366.16 L 225.29,363.98 L 224.33,362.88 L 222.62,360.56 L 220.45,357.00 L 218.09,352.50 L 217.93,357.50 L 217.88,358.88 L 217.85,361.27 L 217.85,361.80 L 217.86,362.61 L 217.91,363.32 L 217.95,363.58 L 217.92,363.87 L 217.88,363.98 L 217.71,364.01 L 217.51,363.98 L 216.83,363.29 L 216.47,362.86 L 215.64,361.59 L 214.50,359.34 L 213.50,356.96 L 212.26,352.00 L 211.76,349.50 L 211.48,344.41 L 211.45,341.87 L 212.07,336.79 L 212.48,334.27 L 213.96,329.36 L 214.80,326.93 L 217.08,322.32 L 218.31,320.06 L 221.35,315.89 L 222.96,313.87 L 226.70,310.29 L 233.06,305.73 L 234.22,305.05 L 236.71,303.88 L 237.98,303.32 L 240.65,302.39 L 242.00,301.96 L 244.80,301.27 L 246.21,300.96 L 249.10,300.53 L 252.00,300.16 L 257.85,300.21 L 259.30,300.28 L 262.15,300.64 L 266.32,301.50 L 268.38,302.03 L 271.85,303.22 L 273.51,303.85 L 276.46,305.37 L 277.90,306.20 L 280.68,308.27 L 285.06,312.21 L 286.37,313.49 L 288.73,316.26 L 289.87,317.67 L 291.87,320.65 L 292.83,322.15 L 294.46,325.30 L 295.23,326.88 L 296.47,330.15 L 297.05,331.79 L 297.89,335.14 L 298.26,336.81 L 298.69,340.19 L 298.85,341.88 L 298.84,345.25 L 298.33,350.25 L 298.04,351.93 L 297.20,355.33 L 296.76,356.98 L 295.78,359.87 L 295.54,360.53 L 295.06,361.65 L 294.83,362.17 L 294.40,362.96 L 294.19,363.31 L 293.83,363.69 L 293.39,363.72 L 293.30,363.64 L 293.10,363.07 L 293.00,362.73 L 292.77,361.74 L 292.10,357.82 L 291.41,352.50 L 288.80,357.50 L 287.98,359.07 L 285.71,362.34 L 284.49,363.96 L 281.70,367.07 L 280.28,368.56 L 277.32,371.12 L 276.59,371.71 L 275.16,372.72 L 273.10,373.95 L 271.92,374.55 L 268.79,375.76 L 267.15,376.35 L 263.65,377.38 L 261.91,377.86 L 258.72,378.53 L 257.98,378.67 L 256.66,378.84 L 255.04,378.92 L 254.69,378.90 L 253.62,378.79 L 253.03,378.72 L 251.62,378.51 L 250.16,378.28 M 191.28,338.85 L 191.44,336.60 L 192.32,331.60 L 192.85,329.04 L 194.35,323.80 L 195.16,321.19 L 197.13,316.19 L 200.42,309.54 L 200.90,308.72 L 202.33,306.80 L 203.11,305.81 L 205.02,303.64 L 206.02,302.54 L 208.29,300.25 L 209.45,299.10 L 211.93,296.81 L 214.44,294.53 L 219.53,290.51 L 220.76,289.59 L 223.07,288.03 L 226.16,286.24 L 228.39,285.14 L 233.18,283.38 L 235.61,282.57 L 240.71,281.38 L 243.28,280.86 L 248.56,280.24 L 251.21,280.00 L 256.55,279.95 L 259.21,280.00 L 264.47,280.52 L 267.07,280.85 L 272.13,281.93 L 274.61,282.54 L 279.33,284.19 L 285.89,287.29 L 288.19,288.60 L 292.52,291.64 L 294.65,293.23 L 298.59,296.77 L 300.50,298.59 L 304.00,302.55 L 305.69,304.57 L 308.69,308.87 L 310.13,311.05 L 312.59,315.62 L 313.74,317.93 L 315.61,322.68 L 316.46,325.08 L 317.68,329.95 L 318.74,337.30 L 319.29,345.11 L 315.65,343.37 L 314.89,343.01 L 313.80,342.37 L 313.31,342.05 L 312.69,341.38 L 312.42,341.02 L 312.14,340.18 L 312.00,338.54 L 312.00,337.89 L 311.84,336.34 L 311.74,335.54 L 311.40,333.74 L 311.01,331.89 L 309.77,327.74 L 309.08,325.63 L 307.38,321.36 L 304.49,315.42 L 303.73,314.06 L 301.98,311.41 L 301.07,310.09 L 299.03,307.54 L 297.98,306.28 L 295.69,303.87 L 294.52,302.69 L 292.02,300.44 L 290.74,299.34 L 288.06,297.29 L 286.69,296.29 L 283.85,294.46 L 282.41,293.57 L 279.45,291.98 L 274.89,289.91 L 274.05,289.57 L 271.92,288.97 L 270.80,288.68 L 268.24,288.20 L 266.92,287.97 L 264.06,287.61 L 262.61,287.45 L 259.60,287.23 L 256.58,287.04 L 250.67,287.11 L 249.25,287.17 L 246.62,287.40 L 243.15,287.95 L 240.33,288.56 L 234.92,290.41 L 232.27,291.44 L 227.23,294.06 L 224.77,295.47 L 220.19,298.79 L 217.96,300.53 L 213.90,304.48 L 211.94,306.52 L 208.47,311.01 L 206.82,313.31 L 204.02,318.26 L 202.71,320.79 L 200.66,326.13 L 198.49,334.50 L 198.30,335.60 L 197.94,337.61 L 197.77,338.57 L 197.48,340.17 L 197.35,340.90 L 197.16,341.91 L 197.03,342.56 L 197.03,342.57 L 196.77,342.77 L 196.61,342.90 L 196.08,343.29 L 193.84,344.96 L 190.68,347.29 L 191.28,338.85 M 150.50,338.00 L 149.59,337.80 L 147.91,337.25 L 147.10,336.95 L 145.63,336.19 L 144.92,335.79 L 143.66,334.85 L 143.06,334.35 L 142.02,333.23 L 141.53,332.65 L 140.72,331.35 L 140.35,330.69 L 139.78,329.23 L 139.52,328.49 L 139.20,326.89 L 139.00,324.33 L 139.00,323.16 L 139.57,320.86 L 139.94,319.73 L 141.19,317.59 L 141.90,316.56 L 143.74,314.73 L 147.07,312.46 L 148.24,311.86 L 150.61,311.23 L 151.79,311.00 L 154.11,311.07 L 155.26,311.19 L 157.42,311.88 L 158.48,312.30 L 160.39,313.55 L 161.30,314.23 L 162.86,315.95 L 163.58,316.87 L 164.67,318.99 L 165.15,320.09 L 165.69,322.53 L 165.76,326.47 L 165.65,327.45 L 165.15,329.28 L 164.86,330.17 L 164.03,331.80 L 163.59,332.58 L 162.48,333.97 L 161.90,334.64 L 160.56,335.76 L 159.86,336.29 L 158.33,337.11 L 157.54,337.48 L 155.86,337.97 L 155.01,338.17 L 153.23,338.28 L 152.33,338.29 M 354.94,337.72 L 354.11,337.50 L 352.52,336.83 L 351.75,336.46 L 350.32,335.50 L 349.62,334.99 L 348.38,333.81 L 347.78,333.19 L 346.76,331.83 L 346.28,331.13 L 345.51,329.65 L 345.16,328.89 L 344.69,327.34 L 344.50,326.55 L 344.35,324.98 L 344.55,322.65 L 344.85,321.25 L 345.94,318.79 L 346.55,317.63 L 348.17,315.66 L 349.04,314.74 L 351.06,313.30 L 352.10,312.65 L 354.37,311.78 L 355.53,311.43 L 357.92,311.18 L 359.11,311.13 L 361.48,311.54 L 362.65,311.84 L 364.85,312.95 L 367.83,315.46 L 368.51,316.23 L 369.61,317.82 L 370.12,318.62 L 370.87,320.24 L 371.20,321.06 L 371.61,322.70 L 371.77,323.52 L 371.83,325.15 L 371.81,325.97 L 371.52,327.58 L 371.34,328.38 L 370.70,329.96 L 370.34,330.73 L 369.36,332.25 L 367.50,334.43 L 366.59,335.35 L 364.73,336.68 L 363.79,337.26 L 361.81,337.95 L 360.79,338.21 L 358.59,338.28 L 357.46,338.24 M 134.25,300.34 L 133.91,300.20 L 133.37,299.27 L 133.00,297.42 L 133.00,296.88 L 133.12,296.13 L 133.22,295.80 L 133.67,295.40 L 133.95,295.23 L 134.88,295.07 L 137.03,295.00 L 137.70,295.00 L 138.83,295.10 L 139.35,295.16 L 140.20,295.38 L 140.58,295.51 L 141.14,295.85 L 141.64,296.51 L 141.80,296.91 L 141.84,297.65 L 141.83,298.02 L 141.58,298.68 L 141.27,299.32 L 139.95,300.24 L 139.21,300.62 L 137.31,300.89 L 136.33,300.92 M 154.75,299.92 L 154.27,299.64 L 153.51,298.63 L 153.00,296.95 L 153.00,296.49 L 153.30,295.87 L 153.43,295.74 L 153.86,295.53 L 154.12,295.43 L 154.86,295.29 L 155.27,295.22 L 156.40,295.13 L 157.02,295.10 L 158.61,295.05 L 159.48,295.03 L 161.62,295.01 L 165.53,295.00 L 166.81,295.00 L 169.02,295.01 L 170.07,295.02 L 171.84,295.06 L 172.68,295.08 L 174.06,295.15 L 174.71,295.19 L 175.76,295.29 L 176.24,295.35 L 176.99,295.49 L 177.33,295.57 L 177.84,295.75 L 178.64,296.51 L 178.81,296.94 L 178.94,297.70 L 178.97,298.05 L 178.81,298.67 L 178.69,298.96 L 178.20,299.45 L 177.92,299.68 L 177.08,300.05 L 176.62,300.22 L 175.41,300.48 L 174.75,300.60 L 173.14,300.77 L 172.28,300.85 L 170.22,300.93 L 166.63,300.97 L 165.24,300.97 L 162.56,300.88 L 161.26,300.82 L 158.96,300.65 L 157.88,300.55 L 156.23,300.32 L 155.51,300.19 M 332.57,299.68 L 332.01,299.26 L 331.37,298.23 L 331.28,296.71 L 331.41,296.38 L 332.07,295.90 L 332.51,295.68 L 334.05,295.37 L 334.51,295.30 L 335.66,295.18 L 336.27,295.13 L 337.75,295.03 L 338.54,294.99 L 340.41,294.91 L 343.70,294.81 L 345.29,294.77 L 348.04,294.74 L 349.34,294.74 L 351.52,294.81 L 352.55,294.85 L 354.20,295.02 L 354.97,295.11 L 356.13,295.39 L 356.65,295.54 L 357.36,295.93 L 357.66,296.14 L 357.94,296.66 L 358.03,296.94 L 357.93,297.61 L 357.38,298.77 L 357.15,299.13 L 356.39,299.66 L 355.93,299.89 L 354.44,300.23 L 354.00,300.30 L 352.92,300.42 L 352.34,300.48 L 350.95,300.57 L 350.21,300.61 L 348.46,300.69 L 345.38,300.78 L 344.37,300.81 L 342.56,300.83 L 341.70,300.84 L 340.16,300.84 L 338.69,300.83 L 336.47,300.69 L 335.46,300.60 L 334.03,300.31 L 333.39,300.14 M 369.53,299.64 L 369.13,299.35 L 368.57,298.77 L 368.33,298.49 L 368.07,297.93 L 367.98,297.66 L 368.01,297.15 L 368.05,296.90 L 368.36,296.45 L 368.54,296.23 L 369.10,295.85 L 369.41,295.68 L 370.22,295.40 L 373.47,295.00 L 374.50,295.00 L 375.91,295.07 L 376.53,295.12 L 377.28,295.38 L 377.59,295.55 L 377.87,296.10 L 378.00,297.39 L 378.00,297.84 L 377.78,298.63 L 377.64,299.00 L 377.18,299.63 L 376.67,300.21 L 375.11,300.85 L 374.28,301.07 L 372.37,300.91 L 371.41,300.71 M 124.71,286.38 L 124.52,286.18 L 124.21,285.34 L 124.00,283.83 L 124.00,283.44 L 124.21,282.88 L 124.38,282.64 L 125.08,282.33 L 125.51,282.19 L 126.92,282.06 L 130.07,282.00 L 130.78,282.00 L 131.97,282.01 L 132.53,282.02 L 133.42,282.05 L 134.26,282.10 L 135.20,282.33 L 135.58,282.48 L 135.85,283.00 L 135.82,284.25 L 135.75,284.74 L 135.48,285.43 L 135.30,285.74 L 134.67,286.16 L 134.29,286.34 L 133.10,286.56 L 130.46,286.79 L 129.08,286.88 L 126.69,286.79 L 126.17,286.76 L 125.39,286.63 L 125.04,286.56 M 375.00,285.50 L 374.55,284.96 L 374.28,284.02 L 374.25,283.58 L 374.81,282.86 L 375.20,282.52 L 376.56,282.02 L 379.51,281.56 L 380.91,281.44 L 383.06,281.46 L 384.03,281.51 L 385.39,281.87 L 385.97,282.10 L 386.60,282.83 L 386.80,284.38 L 386.74,284.83 L 386.46,285.48 L 386.28,285.77 L 385.63,286.17 L 385.24,286.34 L 384.04,286.57 L 381.41,286.80 L 380.49,286.85 L 378.98,286.85 L 378.28,286.83 L 377.18,286.67 L 376.67,286.56 L 375.89,286.22 L 375.53,286.03 M 249.00,260.95 L 249.00,260.51 L 249.20,259.60 L 249.70,258.64 L 249.88,258.46 L 250.18,257.93 L 250.32,257.62 L 250.59,256.69 L 250.72,256.16 L 251.00,254.64 L 251.48,251.50 L 251.54,251.09 L 251.69,250.00 L 251.78,249.43 L 251.96,248.13 L 252.52,244.25 L 252.68,243.08 L 253.20,241.25 L 253.33,240.86 L 253.60,240.34 L 253.98,240.00 L 254.13,240.00 L 254.44,240.24 L 254.60,240.41 L 254.92,240.95 L 255.24,241.55 L 255.87,243.52 L 256.18,244.60 L 256.73,247.31 L 257.38,251.92 L 257.54,253.41 L 258.08,256.06 L 258.23,256.64 L 258.53,257.55 L 258.97,258.37 L 259.26,258.66 L 259.70,259.56 L 260.00,260.99 L 260.00,261.30 L 259.75,261.76 L 259.58,261.97 L 258.88,262.25 L 258.47,262.37 L 257.20,262.50 L 254.50,262.57 L 253.40,262.57 L 251.78,262.50 L 251.06,262.45 L 250.10,262.25 L 249.69,262.13 L 249.24,261.75 L 249.07,261.54 M 242.45,233.64 L 242.36,233.31 L 242.35,232.41 L 242.36,231.94 L 242.53,230.84 L 243.61,227.39 L 244.05,226.43 L 244.63,225.21 L 244.88,224.71 L 245.19,224.36 L 245.33,224.29 L 245.51,224.74 L 245.75,226.25 L 245.86,227.03 L 245.60,228.64 L 244.66,230.49 L 244.25,230.89 L 243.77,232.12 L 243.71,233.98 L 243.85,234.54 L 243.90,235.41 L 243.64,236.00 L 243.47,236.00 L 243.04,235.31 L 242.82,234.88 M 264.25,230.47 L 263.67,229.59 L 262.83,227.89 L 262.46,227.08 L 262.09,225.75 L 261.96,225.15 L 262.12,224.47 L 262.19,224.36 L 262.45,224.30 L 263.02,224.51 L 263.17,224.60 L 263.54,225.05 L 263.73,225.31 L 264.17,226.01 L 264.61,226.77 L 265.49,228.68 L 265.91,229.65 L 266.52,231.42 L 266.64,231.82 L 266.77,232.48 L 266.77,233.14 L 266.74,233.25 L 266.49,233.17 L 266.34,233.09 L 265.92,232.68 L 265.69,232.44 L 265.15,231.75 L 264.86,231.38 M 147.40,167.12 L 146.18,166.22 L 143.92,164.33 L 142.83,163.37 L 140.83,161.36 L 139.86,160.34 L 138.10,158.19 L 137.26,157.11 L 135.74,154.83 L 135.02,153.67 L 133.74,151.24 L 133.13,150.01 L 132.08,147.43 L 131.59,146.12 L 130.76,143.37 L 129.77,139.05 L 129.39,136.99 L 129.21,132.85 L 129.21,130.79 L 129.76,126.70 L 130.12,124.67 L 131.35,120.73 L 132.04,118.79 L 133.89,115.09 L 134.88,113.28 L 137.30,109.93 L 138.58,108.30 L 141.51,105.39 L 143.04,103.99 L 146.44,101.61 L 152.00,98.74 L 153.13,98.28 L 155.22,97.62 L 156.27,97.33 L 158.56,96.94 L 159.78,96.78 L 162.77,96.60 L 163.58,96.57 L 165.42,96.53 L 168.55,96.51 L 169.90,96.51 L 172.14,96.52 L 173.20,96.53 L 174.97,96.58 L 175.81,96.61 L 177.24,96.73 L 177.92,96.80 L 179.15,97.01 L 180.34,97.25 L 182.70,98.13 L 183.33,98.40 L 184.75,99.06 L 187.25,100.28 L 188.63,100.96 L 191.06,102.33 L 192.22,103.03 L 194.31,104.50 L 195.33,105.25 L 197.22,106.92 L 199.99,109.78 L 205.10,115.50 L 190.30,116.09 L 188.06,116.18 L 183.95,116.43 L 181.97,116.57 L 178.54,116.90 L 176.93,117.07 L 174.39,117.46 L 173.82,117.56 L 172.89,117.77 L 171.82,118.09 L 170.04,118.77 L 166.82,120.49 L 165.27,121.41 L 162.56,123.58 L 161.26,124.71 L 159.07,127.30 L 156.39,131.64 L 155.70,133.04 L 154.78,135.27 L 154.38,136.40 L 153.88,138.98 L 153.78,139.70 L 153.62,141.42 L 153.55,142.33 L 153.43,144.54 L 153.38,145.73 L 153.30,148.58 L 153.18,153.75 L 153.13,155.98 L 152.98,160.06 L 152.90,162.00 L 152.71,165.23 L 152.66,165.96 L 152.55,167.21 L 152.50,167.80 L 152.39,168.72 L 152.33,169.13 L 152.22,169.67 L 152.06,170.00 L 151.96,170.00 L 151.46,169.77 L 151.17,169.63 L 150.38,169.15 L 149.53,168.63 Z" fill="rgba(252,252,253,1)"/>
</g>
</svg>